<svg width="10" height="8" xmlns="http://www.w3.org/2000/svg" viewBox="0 0 10 8">
  <path d="M.08479 3.3828l.89934-.95928c.12408-.13249.32536-.13249.44959 0l2.60153 2.77496L8.57439.09023c.12255-.13066.32107-.13066.44362 0l.88739.9465c.12239.13087.12239.34249 0 .47315l-4.595 5.17111c.00478.09289-.02608.18744-.09258.25834l-.8995.95949c-.07423.07914-.1761.11094-.27257.09538-.0928.01242-.18985-.01938-.26113-.09538l-.88739-.9463c-.0486-.0519-.07793-.11654-.08798-.18379L.08477 3.86265c-.12423-.13269-.12423-.34735 0-.47984z" fill="#fff"/>
</svg>
